<svg height="1502" width="720" xmlns="http://www.w3.org/2000/svg">
<rect height="1502" fill="#555" width="720"></rect>
<text fill="#7f7" font-family="Courier New" font-size="12" xml:space="preserve">
<tspan x="10" y="26"></tspan>
<tspan x="10" y="42">&gt; electron-lite@2017.5.29 postinstall /tmp/app/node_modules/electron-lite</tspan>
<tspan x="10" y="58">&gt; [ ! -f npm_scripts.sh ] || ./npm_scripts.sh postinstall</tspan>
<tspan x="10" y="74"></tspan>
<tspan x="10" y="90"></tspan>
<tspan x="10" y="106">&gt; utility2@2017.5.31 postinstall /tmp/app/node_modules/utility2</tspan>
<tspan x="10" y="122">&gt; [ ! -f npm_scripts.sh ] || ./npm_scripts.sh postinstall</tspan>
<tspan x="10" y="138"></tspan>
<tspan x="10" y="154">/tmp/app</tspan>
<tspan x="10" y="170">├── electron-lite@2017.5.29 </tspan>
<tspan x="10" y="186">└── utility2@2017.5.31  (git://github.com/kaizhu256/node-utility2.git#5bcdf1e8758f7d467407b85964\</tspan>
<tspan x="10" y="202">785944333ae1e1)</tspan>
<tspan x="10" y="218"></tspan>
<tspan x="10" y="234">npm WARN enoent ENOENT: no such file or directory, open '/tmp/app/package.json'</tspan>
<tspan x="10" y="250">npm WARN app No description</tspan>
<tspan x="10" y="266">npm WARN app No repository field.</tspan>
<tspan x="10" y="282">npm WARN app No README data</tspan>
<tspan x="10" y="298">npm WARN app No license field.</tspan>
<tspan x="10" y="314"></tspan>
<tspan x="10" y="330">[MODE_BUILD=testExampleJs] - 2017-06-14T03:27:15.781Z - npm-testing /tmp/app</tspan>
<tspan x="10" y="346"></tspan>
<tspan x="10" y="362"></tspan>
<tspan x="10" y="378">covering $ /home/travis/.nvm/versions/node/v6.11.0/bin/node /tmp/app/example.js</tspan>
<tspan x="10" y="394">server listening on http-port 8081</tspan>
<tspan x="10" y="410">Xlib:  extension "RANDR" missing on display ":99.0".</tspan>
<tspan x="10" y="426"></tspan>
<tspan x="10" y="442">browserTest - created electron entry-page /tmp/app/tmp/electron.15ca4a417fe0.9bbff5ad4615b.html</tspan>
<tspan x="10" y="458"></tspan>
<tspan x="10" y="474">Xlib:  extension "RANDR" missing on display ":99.0".</tspan>
<tspan x="10" y="490">[6345:0614/032716:WARNING:audio_manager.cc(314)] Multiple instances of AudioManager detected</tspan>
<tspan x="10" y="506">[6345:0614/032716:WARNING:audio_manager.cc(275)] Multiple instances of AudioManager detected</tspan>
<tspan x="10" y="522">[6364:0614/032716:ERROR:sandbox_linux.cc(343)] InitializeSandbox() called with multiple threads \</tspan>
<tspan x="10" y="538">in process gpu-process. </tspan>
<tspan x="10" y="554">[6345:0614/032716:ERROR:browser_gpu_channel_host_factory.cc(131)] Failed to create channel.</tspan>
<tspan x="10" y="570"></tspan>
<tspan x="10" y="586">browserTest - opened http://127.0.0.1:8081?modeTest=1</tspan>
<tspan x="10" y="602"></tspan>
<tspan x="10" y="618">[6345:0614/032717:INFO:CONSOLE(73)] "server listening on http-port undefined", source: file:///t\</tspan>
<tspan x="10" y="634">mp/app/tmp/electron.15ca4a417fe0.9bbff5ad4615b.html (73)</tspan>
<tspan x="10" y="650">[6345:0614/032717:INFO:CONSOLE(73)] "[browser test-case 1 of 2 passed] - testCase_ajax_404", sou\</tspan>
<tspan x="10" y="666">rce: file:///tmp/app/tmp/electron.15ca4a417fe0.9bbff5ad4615b.html (73)</tspan>
<tspan x="10" y="682">[6345:0614/032717:INFO:CONSOLE(73)] "[browser test-case 2 of 2 passed] - testCase_ajax_200", sou\</tspan>
<tspan x="10" y="698">rce: file:///tmp/app/tmp/electron.15ca4a417fe0.9bbff5ad4615b.html (73)</tspan>
<tspan x="10" y="714"></tspan>
<tspan x="10" y="730">browserTest - created screenshot file /home/travis/build/kaizhu256/node-utility2/tmp/build/scree\</tspan>
<tspan x="10" y="746">nshot.testExampleJs.browser.%2F.png</tspan>
<tspan x="10" y="762"></tspan>
<tspan x="10" y="778">browserTest - created screenshot file /home/travis/build/kaizhu256/node-utility2/tmp/build/scree\</tspan>
<tspan x="10" y="794">nshot.testExampleJs.browser.%2F.html</tspan>
<tspan x="10" y="810"></tspan>
<tspan x="10" y="826">browserTest - merged coverage from file /tmp/app/tmp/coverage.testExampleJs.browser.%2F.json</tspan>
<tspan x="10" y="842"></tspan>
<tspan x="10" y="858"></tspan>
<tspan x="10" y="874">browserTest - merged test-report from file /tmp/app/tmp/test-report.testExampleJs.browser.%2F.js\</tspan>
<tspan x="10" y="890">on</tspan>
<tspan x="10" y="906"></tspan>
<tspan x="10" y="922">[node test-case 1 of 1 passed] - testCase_webpage_default</tspan>
<tspan x="10" y="938">-----------------|-----------|-----------|-----------|-----------|</tspan>
<tspan x="10" y="954">File             |   % Stmts |% Branches |   % Funcs |   % Lines |</tspan>
<tspan x="10" y="970">-----------------|-----------|-----------|-----------|-----------|</tspan>
<tspan x="10" y="986">   app/          |     86.92 |     92.77 |        70 |     86.92 |</tspan>
<tspan x="10" y="1002">      example.js |     86.92 |     92.77 |        70 |     86.92 |</tspan>
<tspan x="10" y="1018">-----------------|-----------|-----------|-----------|-----------|</tspan>
<tspan x="10" y="1034">All files        |     86.92 |     92.77 |        70 |     86.92 |</tspan>
<tspan x="10" y="1050">-----------------|-----------|-----------|-----------|-----------|</tspan>
<tspan x="10" y="1066"></tspan>
<tspan x="10" y="1082">created coverage file /tmp/app/tmp/build/coverage.html/index.html</tspan>
<tspan x="10" y="1098"></tspan>
<tspan x="10" y="1114">-------------------------------------------------------</tspan>
<tspan x="10" y="1130">| test-report - testExampleJs - browser - / - Mozilla/5.0 (X11; Linux x86_64) AppleWebKit/537.36\</tspan>
<tspan x="10" y="1146"> (KHTML, like Gecko) Chrome/53.0.2785.143 Electron/1.4.16 Safari/537.36 - 2017-06-14T03:27:17.08\</tspan>
<tspan x="10" y="1162">3Z</tspan>
<tspan x="10" y="1178">|      30 ms            0 failed        2 passed      |</tspan>
<tspan x="10" y="1194">-------------------------------------------------------</tspan>
<tspan x="10" y="1210">| test-report - testExampleJs - node - linux v6.11.0 - 2017-06-14T03:27:16.077Z</tspan>
<tspan x="10" y="1226">|   15886 ms            0 failed        1 passed      |</tspan>
<tspan x="10" y="1242">-------------------------------------------------------</tspan>
<tspan x="10" y="1258"></tspan>
<tspan x="10" y="1274">created test-report file /home/travis/build/kaizhu256/node-utility2/tmp/build/test-report.html</tspan>
<tspan x="10" y="1290"></tspan>
<tspan x="10" y="1306"></tspan>
<tspan x="10" y="1322">testExampleJs - 0 failed tests</tspan>
<tspan x="10" y="1338"></tspan>
<tspan x="10" y="1354"></tspan>
<tspan x="10" y="1370">[MODE_BUILD=testExampleJs] - 2017-06-14T03:27:33.304Z - EXIT_CODE - 0</tspan>
<tspan x="10" y="1386"></tspan>
<tspan x="10" y="1402"></tspan>
<tspan x="10" y="1418">[MODE_BUILD=testExampleJs] - 2017-06-14T03:27:33.362Z - EXIT_CODE - 0</tspan>
<tspan x="10" y="1434"></tspan>
<tspan x="10" y="1450"></tspan>
<tspan x="10" y="1466">[MODE_BUILD=testExampleJs] - 2017-06-14T03:27:33.469Z - created screenshot file /home/travis/bui\</tspan>
<tspan x="10" y="1482">ld/kaizhu256/node-utility2/tmp/build/screenshot.testExampleJs.svg</tspan>
</text>
</svg>
