<svg height="6638" width="720" xmlns="http://www.w3.org/2000/svg">
<rect height="6638" fill="#555" width="720"></rect>
<text fill="#7f7" font-family="Courier New" font-size="12" xml:space="preserve">
<tspan x="10" y="26">2017-05-28 18:16:13 +0800</tspan>
<tspan x="10" y="42">- npm publish 2017.5.27</tspan>
<tspan x="10" y="58">- ignore missing links in README section 'all screenshots'</tspan>
<tspan x="10" y="74">- merge shell function shReadmeBuildLinkVerify into shBuildCiInternal</tspan>
<tspan x="10" y="90">- rename screenCapture -&gt; screenshot</tspan>
<tspan x="10" y="106">- uprade to istanbul v0.4.5</tspan>
<tspan x="10" y="122">- upgrade to sjcl v1.0.6</tspan>
<tspan x="10" y="138">- auto-create README section 'table of contents'</tspan>
<tspan x="10" y="154"></tspan>
<tspan x="10" y="170">2017-05-22 17:21:28 +0800</tspan>
<tspan x="10" y="186">[npm publish] - npm publish 2017.5.20</tspan>
<tspan x="10" y="202">- auto npm install from alpha-branch</tspan>
<tspan x="10" y="218">- auto-build assets.example.html</tspan>
<tspan x="10" y="234">- auto-detect if package is npm-published to create npmPackageDependencyTree</tspan>
<tspan x="10" y="250">- deprecate and remove auto-rollup generation</tspan>
<tspan x="10" y="266">- merge function middlewareGroupCreate into testRunServer</tspan>
<tspan x="10" y="282">- merge shell command shBuildCiBefore into shBuildCiAfter</tspan>
<tspan x="10" y="298">- rename /app/index.html -&gt; /app</tspan>
<tspan x="10" y="314">- rename istanbul-coverage -&gt; coverage</tspan>
<tspan x="10" y="330">- rename screenCapture -&gt; screen-capture</tspan>
<tspan x="10" y="346">- un-uglify embedded-lib jslint.js</tspan>
<tspan x="10" y="362">- add README section 'internal screen-capture'</tspan>
<tspan x="10" y="378">- add README section 'quickstart standalone app'</tspan>
<tspan x="10" y="394">- rename README section 'quickstart web example' -&gt; 'quickstart example.js'</tspan>
<tspan x="10" y="410"></tspan>
<tspan x="10" y="426">2017-05-06 06:37:28 +0800</tspan>
<tspan x="10" y="442">[npm publish] - npm publish 2017.5.5</tspan>
<tspan x="10" y="458">- add local.env param modeForwardProxyUrl to enable serverless browser-xss</tspan>
<tspan x="10" y="474">- allow assets.index.template.html and assets.lib.css to be overridden by external files</tspan>
<tspan x="10" y="490">- fix apidoc for duplicating main-module if circularly-referenced</tspan>
<tspan x="10" y="506">- merge assets.swgg.rollup.js into assets.utility2.rollup.js</tspan>
<tspan x="10" y="522">- remove file assets.utility2.rollup.js</tspan>
<tspan x="10" y="538"></tspan>
<tspan x="10" y="554">2017-05-02 13:00:10 +0800</tspan>
<tspan x="10" y="570">[npm publish] - npm publish 2017.5.1</tspan>
<tspan x="10" y="586">- add cli-code cli.customOrgStarFilterNotBuilt</tspan>
<tspan x="10" y="602">- add default-coverage fallback for npmtest</tspan>
<tspan x="10" y="618">- add shell-functions shCustomOrgBuildCi, shCustomOrgTravisRebuild</tspan>
<tspan x="10" y="634">- auto-include electron-lite binary path in shell-function shBuildInit</tspan>
<tspan x="10" y="650">- streamline shell-based crypto-functions</tspan>
<tspan x="10" y="666">- use breadth-first-search for exampleList in apidoc</tspan>
<tspan x="10" y="682"></tspan>
<tspan x="10" y="698">2017-04-23 14:41:06 +0800</tspan>
<tspan x="10" y="714">[npm publish] - npm publish 2017.4.22</tspan>
<tspan x="10" y="730">- add $not query-operator in function dbTable.prototype.crudGetManyByQuery</tspan>
<tspan x="10" y="746">- add function requireInSandbox to try and build customOrg in sandbox-like env</tspan>
<tspan x="10" y="762">- fallback to tarball-install if npm-install fails when building customOrg</tspan>
<tspan x="10" y="778">- merge git-branch public) -&gt; alpha)</tspan>
<tspan x="10" y="794">- remove redundant shBuildCiInternal process after publishing customOrg</tspan>
<tspan x="10" y="810">- rename name dbTableTravisOrg -&gt; dbTableCustomOrg</tspan>
<tspan x="10" y="826">- use breadth-first-search for files to add to libFileList-param in function apidocCreate</tspan>
<tspan x="10" y="842"></tspan>
<tspan x="10" y="858">2017-04-18 00:55:07 +0800</tspan>
<tspan x="10" y="874">[npm publish] - npm publish 2017.4.16</tspan>
<tspan x="10" y="890">- npmdoc - remove markdown renderer</tspan>
<tspan x="10" y="906">- npmdoc - bug-workaround for npm-package material-design-icons - limit npmPackageListing size m\</tspan>
<tspan x="10" y="922">aximum of 4096 items</tspan>
<tspan x="10" y="938">- add shell-function shBrowserTestList</tspan>
<tspan x="10" y="954">- add 'shuffle' param in function function dbTable.prototype.crudGetManyByQuery</tspan>
<tspan x="10" y="970"></tspan>
<tspan x="10" y="986">2017-04-15 04:42:26 +0800</tspan>
<tspan x="10" y="1002">Merge pull request #6 from kaizhu256/alpha</tspan>
<tspan x="10" y="1018"></tspan>
<tspan x="10" y="1034">- fix bug where function apidocCreate cannot document module-functions</tspan>
<tspan x="10" y="1050">2017-04-15 04:25:15 +0800</tspan>
<tspan x="10" y="1066">- fix bug where function apidocCreate cannot document module-functions</tspan>
<tspan x="10" y="1082">- fix bug parsing package.json in shell-function shInit</tspan>
<tspan x="10" y="1098">- strip email from npmdoc documentation - https://github.com/npmdoc/node-npmdoc-hpp/issues/1</tspan>
<tspan x="10" y="1114"></tspan>
<tspan x="10" y="1130">2017-04-14 15:46:32 +0800</tspan>
<tspan x="10" y="1146">[npm publish] - npm publish 2017.4.14</tspan>
<tspan x="10" y="1162">- begin mass test-coverage of npm-ecosystem under https://github.com/npmtest</tspan>
<tspan x="10" y="1178">- add default testCase testCase_buildCustomOrg_default</tspan>
<tspan x="10" y="1194">- add shell-function shIsInGithubOrg to auto-determine whether using env-var $GITHUB_ORG is appr\</tspan>
<tspan x="10" y="1210">opriate or not</tspan>
<tspan x="10" y="1226">- add shell-functions shCryptoAesWithGithubOrg, shNpmNameListFetch</tspan>
<tspan x="10" y="1242">- auto-screenCapture test-report and coverage.html in shell-function shBuildCiInternal</tspan>
<tspan x="10" y="1258">- improve scaffolding feature of shell-function shBuildApp</tspan>
<tspan x="10" y="1274">- merge env-vars $npm_package_buildNpmdoc and $npm_package_readmeParse into $npm_package_buildCu\</tspan>
<tspan x="10" y="1290">stomOrg</tspan>
<tspan x="10" y="1306">- merge shell-function shBuildCustomOrg into shBuildCiInternal</tspan>
<tspan x="10" y="1322">- preserve percent-encoding in screenCapture files (so the url can be reconstructed)</tspan>
<tspan x="10" y="1338"></tspan>
<tspan x="10" y="1354">2017-04-07 15:50:56 +0800</tspan>
<tspan x="10" y="1370">[npm publish] - npm publish 2017.4.6</tspan>
<tspan x="10" y="1386">- add auto-retry option to function onParallelList</tspan>
<tspan x="10" y="1402">- add depencency-tree-visualization and dependency-tree-size to README.md</tspan>
<tspan x="10" y="1418">- add html-scraper to function browerTest</tspan>
<tspan x="10" y="1434">- add property 'sortDefault' to dbTable, which defaults to [{ fieldName: '_timeUpdated', isDesce\</tspan>
<tspan x="10" y="1450">nding: true }]</tspan>
<tspan x="10" y="1466">- add optional callback to function dbTable.prototype.save</tspan>
<tspan x="10" y="1482">- add shell-functions shGithubRepoListCreate, shNpmNameNormalize, shNpmPackageDependencyTreeCrea\</tspan>
<tspan x="10" y="1498">te, shOnParallelListSpawn, shTravisRepoListFilterForNonActive</tspan>
<tspan x="10" y="1514">- add shell-function shNpmPackageNameListGetFromUrl, which allows shNpmdocRepoListCreate to crea\</tspan>
<tspan x="10" y="1530">te npmdocs directly from npm-website</tspan>
<tspan x="10" y="1546">- enable auto-cancel-mode by default when creating travis-repo</tspan>
<tspan x="10" y="1562">- streamline build-process for 'npm publishAfterCommitAfterBuild' to just one stage (alpha)</tspan>
<tspan x="10" y="1578"></tspan>
<tspan x="10" y="1594">2017-03-30 22:40:41 +0800</tspan>
<tspan x="10" y="1610">[npm publish] - npm publish 2017.3.29</tspan>
<tspan x="10" y="1626">- add args $modeBrowserTest and $url to shell-function shBrowserTest</tspan>
<tspan x="10" y="1642">- add branch-cron</tspan>
<tspan x="10" y="1658">- add function dbTableTravisRepoCreate, dbTableTravisRepoCrudGetManyByQuery, dbTableTravisRepoUp\</tspan>
<tspan x="10" y="1674">date, and listForEachAsync</tspan>
<tspan x="10" y="1690">- add github-crud function contentTouchList</tspan>
<tspan x="10" y="1706">- add shell-function shGitRemotePromote to auto-promote branches alpha -&gt; beta -&gt; master</tspan>
<tspan x="10" y="1722">- add shell-function shGithubRepoListTouch, shListUnflattenAndApply, and shNpmInstallWithPeerDep\</tspan>
<tspan x="10" y="1738">endencies</tspan>
<tspan x="10" y="1754">- auto update public travis-repos in alpha-branch</tspan>
<tspan x="10" y="1770">- deprecate ssh-key in favor of github oauth - https://stackoverflow.com/questions/18027115/comm\</tspan>
<tspan x="10" y="1786">itting-via-travis-ci-failing</tspan>
<tspan x="10" y="1802">- enable shNpmdocRepoListCreate in travis-ci</tspan>
<tspan x="10" y="1818">- enhance shell-function shNpmPackageListingCreate to add total package-size to package-listing</tspan>
<tspan x="10" y="1834">- fix apidoc bug 'Function.prototype.toString is not generic'</tspan>
<tspan x="10" y="1850">- fix shell-function shInit bug - export: npm_package_react-native: bad variable name</tspan>
<tspan x="10" y="1866">- sanitize sensitive env-vars from electron.*.html</tspan>
<tspan x="10" y="1882">- use optional remote-credentials during travis-ci build</tspan>
<tspan x="10" y="1898"></tspan>
<tspan x="10" y="1914">2017-03-22 01:58:56 +0800</tspan>
<tspan x="10" y="1930">[npm publish] - npm publish 2017.3.21</tspan>
<tspan x="10" y="1946">- security - rewrite function moduleDirname, so that it doesn't have to require arbitrary module\</tspan>
<tspan x="10" y="1962">s</tspan>
<tspan x="10" y="1978">- add github-crud command 'touch' to trigger github-hooks and add commit-messages without changi\</tspan>
<tspan x="10" y="1994">ng files</tspan>
<tspan x="10" y="2010">- add commit-message-meta macro 'promote branch1 -&gt; branch2'</tspan>
<tspan x="10" y="2026">- add env var TRAVIS_REPO_CREATE_FORCE to force re-creation of npmdoc</tspan>
<tspan x="10" y="2042">- add env var npm_package_buildNpmdocMain to customize npmdoc target</tspan>
<tspan x="10" y="2058">- add optional commit-message for PUT, DELETE, and TOUCH requests in github-crud</tspan>
<tspan x="10" y="2074">- add package-description to apidoc</tspan>
<tspan x="10" y="2090">- add package-listing to npmdoc</tspan>
<tspan x="10" y="2106">- add package.json to npmdoc</tspan>
<tspan x="10" y="2122">- add async shell-function shNpmdocRepoListCreate to automate creation of npmdoc's</tspan>
<tspan x="10" y="2138">- add shell function shUtility2GrepTravisYml</tspan>
<tspan x="10" y="2154">- fix 'span class' error in https://www.npmjs.com/package/npmdoc-glob</tspan>
<tspan x="10" y="2170">- merge function local.runIfTrue -&gt; local.nop</tspan>
<tspan x="10" y="2186">- rename lib.xxx.npm_scripts.sh to npm_scripts.sh</tspan>
<tspan x="10" y="2202">- shBuildPrint message for deprecate and publish operations</tspan>
<tspan x="10" y="2218"></tspan>
<tspan x="10" y="2234">2017-03-17 21:15:11 +0800</tspan>
<tspan x="10" y="2250">[npm publish] - npm publish 2017.3.17</tspan>
<tspan x="10" y="2266">- fix quickstart demo for example.js</tspan>
<tspan x="10" y="2282">- allow auto-deprecating of aliases in publish branch</tspan>
<tspan x="10" y="2298">- allow auto-publishing of aliases in publish branch</tspan>
<tspan x="10" y="2314"></tspan>
<tspan x="10" y="2330">2017-03-17 05:05:24 +0800</tspan>
<tspan x="10" y="2346">[npm publish] - npm publish 2017.3.16</tspan>
<tspan x="10" y="2362">- add function buildNpmdoc and buildTest</tspan>
<tspan x="10" y="2378">- automate building and publishing of npmdoc's</tspan>
<tspan x="10" y="2394">- commit tag 'npm publish' will publish package in alpha-branch and promote to beta</tspan>
<tspan x="10" y="2410">- harden shell-function shPasswordEnvUnset</tspan>
<tspan x="10" y="2426">- remove '|| return $?' from shell-scripts when possible to fix 'set -e' failing to exit on erro\</tspan>
<tspan x="10" y="2442">r</tspan>
<tspan x="10" y="2458">- rename function onErrorAssert -&gt; onErrorThrow</tspan>
<tspan x="10" y="2474">- partially revert npm_package_nameAlias back to npm_package_name</tspan>
<tspan x="10" y="2490"></tspan>
<tspan x="10" y="2506">2017-03-11 03:56:44 +0800</tspan>
<tspan x="10" y="2522">- npm publish 2017.3.10</tspan>
<tspan x="10" y="2538">- fix build in beta branch</tspan>
<tspan x="10" y="2554"></tspan>
<tspan x="10" y="2570">2017-03-11 02:50:36 +0800</tspan>
<tspan x="10" y="2586">- npm publish 2017.3.9</tspan>
<tspan x="10" y="2602">- add functions moduleDirname and onErrorAssert</tspan>
<tspan x="10" y="2618">- add shell-command shPasswordEnvUnset</tspan>
<tspan x="10" y="2634">- rename name api-doc -&gt; apidoc</tspan>
<tspan x="10" y="2650">- revamp build scripts</tspan>
<tspan x="10" y="2666">- split function buildApidoc into new file lib.apidoc.js</tspan>
<tspan x="10" y="2682">- verify README.md's build-links during build</tspan>
<tspan x="10" y="2698"></tspan>
<tspan x="10" y="2714">2017-03-01 17:52:26 +0800</tspan>
<tspan x="10" y="2730">- npm publish 2017.2.28</tspan>
<tspan x="10" y="2746">- build - add publish build-branch</tspan>
<tspan x="10" y="2762">- build - auto-clean build if commit-message is CLEAN_BUILD</tspan>
<tspan x="10" y="2778">- build - auto-tag branch in master build-branch</tspan>
<tspan x="10" y="2794">- README.md - normalize browser-script in example.js</tspan>
<tspan x="10" y="2810">- promote utility2 plug in README.md, api-doc, code-coverage, rollup, test-coverage</tspan>
<tspan x="10" y="2826">- lib.db.js - add ttl-cache</tspan>
<tspan x="10" y="2842">- lib.utility2.js - revamp function buildApiDoc</tspan>
<tspan x="10" y="2858">- lib.utility2.sh - revamp shell-function shNpmPublish</tspan>
<tspan x="10" y="2874"></tspan>
<tspan x="10" y="2890">2017-02-21 03:06:56 +0800</tspan>
<tspan x="10" y="2906">- npm publish 2017.2.20</tspan>
<tspan x="10" y="2922">- add field nameOriginal to package.json</tspan>
<tspan x="10" y="2938">- do not cover rollups</tspan>
<tspan x="10" y="2954">- merge shell-function shNpmPublishAlias into shNpmPublish</tspan>
<tspan x="10" y="2970">- normalize example.html</tspan>
<tspan x="10" y="2986"></tspan>
<tspan x="10" y="3002">2017-02-20 02:49:59 +0800</tspan>
<tspan x="10" y="3018">- npm publish 2017.2.19</tspan>
<tspan x="10" y="3034">- replace env var npm_package_name with npm_package_nameAlias in istanbul code-coverage</tspan>
<tspan x="10" y="3050">- revamp shell-function shNpmPublishAlias</tspan>
<tspan x="10" y="3066"></tspan>
<tspan x="10" y="3082">2017-02-19 01:09:51 +0800</tspan>
<tspan x="10" y="3098">- npm publish 2017.2.18</tspan>
<tspan x="10" y="3114">- add shell-function shReadmeTestExampleJs</tspan>
<tspan x="10" y="3130">- do not auto-uglify js-assets in production</tspan>
<tspan x="10" y="3146">- rename doc-api to api-doc</tspan>
<tspan x="10" y="3162">- rename hrku01 to h1</tspan>
<tspan x="10" y="3178">- rename local.template* to local.assetsDict[assets.*.template]</tspan>
<tspan x="10" y="3194">- revamp function buildApiDoc</tspan>
<tspan x="10" y="3210">- revamp function buildReadme and include testCase_buildReadme_default inside testCase_buildApp_\</tspan>
<tspan x="10" y="3226">default</tspan>
<tspan x="10" y="3242">- remove functions assetsAlias, assetsWrite</tspan>
<tspan x="10" y="3258">- use env var npm_package_nameAlias over npm_package_name</tspan>
<tspan x="10" y="3274"></tspan>
<tspan x="10" y="3290">2017-02-06 21:14:20 +0800</tspan>
<tspan x="10" y="3306">- npm publish 2017.2.6</tspan>
<tspan x="10" y="3322">- allow env var npm_config_mode_test_case to have comma-separated list of test-cases</tspan>
<tspan x="10" y="3338">- replace function requestResponseCleanup with streamListCleanup</tspan>
<tspan x="10" y="3354">- don't use nameAlias in assets</tspan>
<tspan x="10" y="3370">- rename base64 functions with base64 as prefix</tspan>
<tspan x="10" y="3386">- add commandline options --eval -e --interactive -i</tspan>
<tspan x="10" y="3402">- add env var npm_pacakge_nameHeroku</tspan>
<tspan x="10" y="3418">- add function assetsAlias</tspan>
<tspan x="10" y="3434">- add shell-functions shUtility2DependentsSync shUtility2RollupCreate</tspan>
<tspan x="10" y="3450">- merge files lib.* into standaalone file assets.utility2.rollup.js</tspan>
<tspan x="10" y="3466">- merge files lib.swgg.* into lib.swgg.js</tspan>
<tspan x="10" y="3482"></tspan>
<tspan x="10" y="3498">2017-01-27 14:44:40 +0800</tspan>
<tspan x="10" y="3514">- move most logic from Dockerfile.latest to Dockerfile.base</tspan>
<tspan x="10" y="3530">- add shell-function shImageToDataUri</tspan>
<tspan x="10" y="3546">- add shell-function shSshReverseTunnel</tspan>
<tspan x="10" y="3562">- add function sjclHmacSha256Create</tspan>
<tspan x="10" y="3578">- replace localhost with 127.0.0.1</tspan>
<tspan x="10" y="3594"></tspan>
<tspan x="10" y="3610">2017-01-05 20:57:31 +0800</tspan>
<tspan x="10" y="3626">- npm publish 2017.1.5</tspan>
<tspan x="10" y="3642">- automate readme-generation with new functions local.buildReadmeElectronLite and local.buildRea\</tspan>
<tspan x="10" y="3658">dmeJslintLite</tspan>
<tspan x="10" y="3674">- revamp github-crud-api</tspan>
<tspan x="10" y="3690">- add function httpRequest</tspan>
<tspan x="10" y="3706">- add shell-function shNpmPublishAlias</tspan>
<tspan x="10" y="3722">- remove function domQuerySelectorAll</tspan>
<tspan x="10" y="3738">- update documentation-generator</tspan>
<tspan x="10" y="3754"></tspan>
<tspan x="10" y="3770">2016-12-26 15:10:22 +0800</tspan>
<tspan x="10" y="3786">- add file lib.swgg.css</tspan>
<tspan x="10" y="3802">- add file lib.swgg.js</tspan>
<tspan x="10" y="3818">- add file lib.swgg.json-schema.json</tspan>
<tspan x="10" y="3834">- add file lib.swgg.petstore.json</tspan>
<tspan x="10" y="3850">- add file lib.swgg.schema.json</tspan>
<tspan x="10" y="3866">- add file lib.swgg.ui.js</tspan>
<tspan x="10" y="3882">- add heroku-postbuild npm-script</tspan>
<tspan x="10" y="3898"></tspan>
<tspan x="10" y="3914">2016-12-25 02:10:59 +0800</tspan>
<tspan x="10" y="3930">- npm publish 2016.12.2</tspan>
<tspan x="10" y="3946">- merge github-crud into this package</tspan>
<tspan x="10" y="3962">- revamp heroku-deploy</tspan>
<tspan x="10" y="3978">- add middlewareForwardProxy</tspan>
<tspan x="10" y="3994">- add modeDebug option to function local.ajax</tspan>
<tspan x="10" y="4010"></tspan>
<tspan x="10" y="4026">2016-12-13 21:36:58 +0800</tspan>
<tspan x="10" y="4042">- npm publish 2016.12.1</tspan>
<tspan x="10" y="4058">- merge utility2 namespace into local namespace</tspan>
<tspan x="10" y="4074">- revamp encryption features to primarily use json-web-encryption</tspan>
<tspan x="10" y="4090"></tspan>
<tspan x="10" y="4106">2016-12-02 12:46:27 +0800</tspan>
<tspan x="10" y="4122">- npm publish 2016.11.2</tspan>
<tspan x="10" y="4138">- streamline build-process for other packages</tspan>
<tspan x="10" y="4154"></tspan>
<tspan x="10" y="4170">2016-11-29 15:15:04 +0800</tspan>
<tspan x="10" y="4186">- npm publish 2016.11.1</tspan>
<tspan x="10" y="4202">- rename files index.* -&gt; lib.utility2.*</tspan>
<tspan x="10" y="4218">- use 'local' as primary namespace for tests</tspan>
<tspan x="10" y="4234">- replace function uglifyIfProduction with assetsWrite</tspan>
<tspan x="10" y="4250">- rename function middlewareJsonpStateInitDefault -&gt; middlewareJsonpStateInit</tspan>
<tspan x="10" y="4266">- add env npm_package_nameAlias</tspan>
<tspan x="10" y="4282">- add webkit-polyfill for TextDecoder and TextEncoder</tspan>
<tspan x="10" y="4298"></tspan>
<tspan x="10" y="4314">2016-11-21 09:31:23 +0800</tspan>
<tspan x="10" y="4330">- npm publish 2016.10.4</tspan>
<tspan x="10" y="4346">- add es6-syntax support for code-coverage</tspan>
<tspan x="10" y="4362">- add functions utility2.normalizeDict and utility2.normalizeList</tspan>
<tspan x="10" y="4378">- coverage - globalize local.codeDict to global.__coverageCodeDict__</tspan>
<tspan x="10" y="4394">- coverage - add in-file config-var /* istanbul ignore all */ to ignore the file</tspan>
<tspan x="10" y="4410"></tspan>
<tspan x="10" y="4426">2016-11-11 20:03:17 +0800</tspan>
<tspan x="10" y="4442">- npm publish 2016.10.3</tspan>
<tspan x="10" y="4458">- coverage - add env-variable npm_config_mode_coverage_append to allow appending coverage to pre\</tspan>
<tspan x="10" y="4474">vious reports</tspan>
<tspan x="10" y="4490">- coverage - change behavior of npm_config_mode_coverage=all to cover all files</tspan>
<tspan x="10" y="4506">- function utility2.replStart - make it a standalone function</tspan>
<tspan x="10" y="4522">- function utility2.uglify - prefer uglifying code with 80-column-width</tspan>
<tspan x="10" y="4538"></tspan>
<tspan x="10" y="4554">2016-11-07 23:47:37 +0800</tspan>
<tspan x="10" y="4570">- npm publish 2016.10.2</tspan>
<tspan x="10" y="4586">- decouple lib.db.js from utility2's init</tspan>
<tspan x="10" y="4602">- replace loading spinner with topbar</tspan>
<tspan x="10" y="4618">- fix utility2.errorDefault getting its stack prepended</tspan>
<tspan x="10" y="4634">- rename .ajaxProgressDiv -&gt; #ajaxProgressDiv1, .testReportDiv -&gt; #testReportDiv1</tspan>
<tspan x="10" y="4650">- merge functions utility2.taskOnTaskUpsert and utility2.taskOnErrorPush -&gt; utility2.taskCreate</tspan>
<tspan x="10" y="4666">- change signature of function utility2.taskCreateCached</tspan>
<tspan x="10" y="4682">- remove functions utility2.ajaxProgressShow, utility2.dbReset</tspan>
<tspan x="10" y="4698">- README.md - add cdn-download links</tspan>
<tspan x="10" y="4714">- README.md - replace alpha api-doc with beta api-doc</tspan>
<tspan x="10" y="4730"></tspan>
<tspan x="10" y="4746">2016-10-17 20:46:38 +0800</tspan>
<tspan x="10" y="4762">- npm publish 2016.10.1</tspan>
<tspan x="10" y="4778">- migrate from lib.nedb.js to lib.db.js</tspan>
<tspan x="10" y="4794">- make index.js a standalone script</tspan>
<tspan x="10" y="4810">- add property utility2.testCaseDict</tspan>
<tspan x="10" y="4826">- cull testCase_xxx properties in function docApiCreate</tspan>
<tspan x="10" y="4842">- auto-default null / undefined arguments to empty object {} in utility2.objectSetDefault and ut\</tspan>
<tspan x="10" y="4858">ility2.objectSetOverride</tspan>
<tspan x="10" y="4874">- prevent potential infinite recursion bug in function utility2.onNext</tspan>
<tspan x="10" y="4890"></tspan>
<tspan x="10" y="4906">2016-10-02 11:46:13 +0800</tspan>
<tspan x="10" y="4922">- npm publish 2016.9.1</tspan>
<tspan x="10" y="4938">- revamp lib.nedb.js</tspan>
<tspan x="10" y="4954">- reset onReadyAfter for testRun</tspan>
<tspan x="10" y="4970">- add function utility2.onNext</tspan>
<tspan x="10" y="4986">- streamline test.js</tspan>
<tspan x="10" y="5002"></tspan>
<tspan x="10" y="5018">2016-08-27 10:56:36 +0800</tspan>
<tspan x="10" y="5034">- npm publish 2016.8.2</tspan>
<tspan x="10" y="5050">- ensure utility2.dbSeedListUpsert runs after utility2.onResetAfter</tspan>
<tspan x="10" y="5066"></tspan>
<tspan x="10" y="5082">2016-08-27 05:40:58 +0800</tspan>
<tspan x="10" y="5098">- npm publish 2016.8.1</tspan>
<tspan x="10" y="5114">- migrate nedb-api from swagger-lite to utility2</tspan>
<tspan x="10" y="5130">- add functions utility2.db*</tspan>
<tspan x="10" y="5146"></tspan>
<tspan x="10" y="5162">2016-08-12 05:38:50 +0200</tspan>
<tspan x="10" y="5178">- npm publish 2016.7.5</tspan>
<tspan x="10" y="5194">- handle repl-server-error</tspan>
<tspan x="10" y="5210">- display instrumented-code in web-ui</tspan>
<tspan x="10" y="5226">- strip base64 '=' padding from local.utility2.sjclCipherAes128Encrypt</tspan>
<tspan x="10" y="5242"></tspan>
<tspan x="10" y="5258">2016-08-07 21:41:12 +0200</tspan>
<tspan x="10" y="5274">- npm publish 2016.7.4</tspan>
<tspan x="10" y="5290">- fix example.js quickstart demo</tspan>
<tspan x="10" y="5306"></tspan>
<tspan x="10" y="5322">2016-08-07 21:09:53 +0200</tspan>
<tspan x="10" y="5338">- npm publish 2016.7.3</tspan>
<tspan x="10" y="5354">- deploy standalone-app to heroku</tspan>
<tspan x="10" y="5370">- allow repl-server to be accessed remotely via tcp</tspan>
<tspan x="10" y="5386">- add coverage option to command 'utility2 start'</tspan>
<tspan x="10" y="5402">- rename functions in jslint, stateInit, tasks</tspan>
<tspan x="10" y="5418"></tspan>
<tspan x="10" y="5434">2016-07-31 14:25:38 +0200</tspan>
<tspan x="10" y="5450">- npm publish 2016.7.2</tspan>
<tspan x="10" y="5466">- fix code-coverage in example.js</tspan>
<tspan x="10" y="5482"></tspan>
<tspan x="10" y="5498">2016-07-31 14:02:32 +0200</tspan>
<tspan x="10" y="5514">- npm publish 2016.7.1</tspan>
<tspan x="10" y="5530">- allow packages that don't depend on utility2 to be built by it</tspan>
<tspan x="10" y="5546">- fix shell function shTravisEncryptYml</tspan>
<tspan x="10" y="5562">- rename debugPrint to debugInline</tspan>
<tspan x="10" y="5578"></tspan>
<tspan x="10" y="5594">2016-07-16 16:12:03 +0200</tspan>
<tspan x="10" y="5610">- npm publish 2016.6.2</tspan>
<tspan x="10" y="5626">- fix coverage-key collision bug in istanbul instrumenter</tspan>
<tspan x="10" y="5642"></tspan>
<tspan x="10" y="5658">2016-07-16 13:23:34 +0200</tspan>
<tspan x="10" y="5674">- npm publish 2016.6.1</tspan>
<tspan x="10" y="5690">- replace lib bcrypt with sjcl.misc.scrypt</tspan>
<tspan x="10" y="5706">- replace lib cryptojs with sjcl</tspan>
<tspan x="10" y="5722"></tspan>
<tspan x="10" y="5738">2016-07-01 02:54:13 +0200</tspan>
<tspan x="10" y="5754">- npm publish 2016.5.5</tspan>
<tspan x="10" y="5770">- explicitly require the macro /* istanbul instrument in package ... */ for a file to be covered</tspan>
<tspan x="10" y="5786">- generalize utility2.requireExampleJsFromReadme</tspan>
<tspan x="10" y="5802">- merge shell function shReadmeExportScripts into shInit</tspan>
<tspan x="10" y="5818"></tspan>
<tspan x="10" y="5834">2016-06-15 17:55:10 +0300</tspan>
<tspan x="10" y="5850">- npm publish 2016.5.4</tspan>
<tspan x="10" y="5866">- deploy standalone app to heroku test-server</tspan>
<tspan x="10" y="5882">- add file lib.nedb.js</tspan>
<tspan x="10" y="5898">- add 'run internal test' button in webpage</tspan>
<tspan x="10" y="5914">- add env var npm_config_mode_backend to disable utility2.serverLocalUrlTest</tspan>
<tspan x="10" y="5930">- add download link for example.js and example.sh in README.md</tspan>
<tspan x="10" y="5946">- add minified asset assets.app.min.js</tspan>
<tspan x="10" y="5962">- prevent side-effects in function utility2.docApiCreate</tspan>
<tspan x="10" y="5978">- template README.md with package.json</tspan>
<tspan x="10" y="5994">- add function utility2.jslintAndPrintHtml</tspan>
<tspan x="10" y="6010">- replace function utility2.requireFromScript with utility2.requireExampleJsFromReadme</tspan>
<tspan x="10" y="6026">- fix missing screen-capture of npmTestPublished</tspan>
<tspan x="10" y="6042"></tspan>
<tspan x="10" y="6058">2016-06-12 01:36:58 +0300</tspan>
<tspan x="10" y="6074">- npm publish 2016.5.3</tspan>
<tspan x="10" y="6090">- add homepage-link in api-doc</tspan>
<tspan x="10" y="6106">- fix test-report styling</tspan>
<tspan x="10" y="6122"></tspan>
<tspan x="10" y="6138">2016-06-11 19:57:41 +0300</tspan>
<tspan x="10" y="6154">- npm publish 2016.5.1</tspan>
<tspan x="10" y="6170">- add standalone-app download-link in test-page</tspan>
<tspan x="10" y="6186">- add homepage-link in test-page, test-report, coverage-report</tspan>
<tspan x="10" y="6202">- move shell function shDocApiCreate to javascript function testCase_build_doc</tspan>
<tspan x="10" y="6218">- add function utility2.middlewareJsonpStateGet, utility2.stateInit</tspan>
<tspan x="10" y="6234"></tspan>
<tspan x="10" y="6250">2016-05-30 14:45:08 +0300</tspan>
<tspan x="10" y="6266">- npm publish 2016.4.2</tspan>
<tspan x="10" y="6282">- add functions utility2.objectLiteral, utility2.onResetAfter, utility2.onResetBefore</tspan>
<tspan x="10" y="6298">- split function utility2.onReady into utility2.onReadyBefore and utility2.onReadyAfter</tspan>
<tspan x="10" y="6314"></tspan>
<tspan x="10" y="6330">2016-05-24 01:28:12 +0300</tspan>
<tspan x="10" y="6346">- npm publish 2016.4.1</tspan>
<tspan x="10" y="6362">- update electron-lite devDependency</tspan>
<tspan x="10" y="6378"></tspan>
<tspan x="10" y="6394">2016-05-20 17:37:40 +0300</tspan>
<tspan x="10" y="6410">- npm publish 2016.3.6</tspan>
<tspan x="10" y="6426">- jslint - remove hacky es6 generator support</tspan>
<tspan x="10" y="6442">- add shell function shHttpFileServer</tspan>
<tspan x="10" y="6458">- add functions utility2.cookieDict, utility2.cookieRemove, utility2.cookieRemoveAll, utility2.c\</tspan>
<tspan x="10" y="6474">ookieSet</tspan>
<tspan x="10" y="6490">- allow argument for arbitrary string method in utility2.templateRender</tspan>
<tspan x="10" y="6506"></tspan>
<tspan x="10" y="6522">2016-05-07 14:59:43 +0300</tspan>
<tspan x="10" y="6538">- fix utility2.FormData.prototype.append from crashing when it tries to set value.name to a brow\</tspan>
<tspan x="10" y="6554">ser file-object</tspan>
<tspan x="10" y="6570">- improve performance of utility2.tryCatchOnError</tspan>
<tspan x="10" y="6586">- function utility2.jslintAndPrint - add css support for flexbox</tspan>
<tspan x="10" y="6602">- add function utility2.assertJsonEqual and utility2.assertJsonNotEqual</tspan>
<tspan x="10" y="6618">- use handlebars-like syntax each/if/unless in utility2.templateRender</tspan>
</text>
</svg>
