<svg height="894" width="720" xmlns="http://www.w3.org/2000/svg">
<rect height="894" fill="#555" width="720"></rect>
<text fill="#7f7" font-family="Courier New" font-size="12" xml:space="preserve">
<tspan x="10" y="26">(re)starting shNpmTest test.js</tspan>
<tspan x="10" y="42"></tspan>
<tspan x="10" y="58">[MODE_BUILD=buildApp] - 2017-05-31T12:19:28.044Z - npm-testing /home/travis/build/kaizhu256/node\</tspan>
<tspan x="10" y="74">-utility2</tspan>
<tspan x="10" y="90"></tspan>
<tspan x="10" y="106"></tspan>
<tspan x="10" y="122">buildApp - merged test-report from file:///home/travis/build/kaizhu256/node-utility2/tmp/build/t\</tspan>
<tspan x="10" y="138">est-report.json</tspan>
<tspan x="10" y="154">&gt; repl-server listening on tcp-port 42713</tspan>
<tspan x="10" y="170">server listening on http-port 51587</tspan>
<tspan x="10" y="186">file modified - /home/travis/build/kaizhu256/node-utility2/README.md</tspan>
<tspan x="10" y="202">file modified - /home/travis/build/kaizhu256/node-utility2/README.md</tspan>
<tspan x="10" y="218">file modified - /home/travis/build/kaizhu256/node-utility2/lib.utility2.js</tspan>
<tspan x="10" y="234">file modified - /home/travis/build/kaizhu256/node-utility2/lib.utility2.js</tspan>
<tspan x="10" y="250">file modified - /home/travis/build/kaizhu256/node-utility2/package.json</tspan>
<tspan x="10" y="266">file modified - /home/travis/build/kaizhu256/node-utility2/package.json</tspan>
<tspan x="10" y="282">file modified - /home/travis/build/kaizhu256/node-utility2/test.js</tspan>
<tspan x="10" y="298">file modified - /home/travis/build/kaizhu256/node-utility2/test.js</tspan>
<tspan x="10" y="314">server listening on http-port 37748</tspan>
<tspan x="10" y="330">&gt; [node test-case 1 of 1 passed] - testCase_buildApp_default</tspan>
<tspan x="10" y="346"></tspan>
<tspan x="10" y="362">buildApp - merged test-report from file:///home/travis/build/kaizhu256/node-utility2/tmp/build/t\</tspan>
<tspan x="10" y="378">est-report.json</tspan>
<tspan x="10" y="394"></tspan>
<tspan x="10" y="410">-------------------------------------------------------</tspan>
<tspan x="10" y="426">| test-report - buildApidoc - node - linux v6.10.3 - 2017-05-31T12:18:28.995Z</tspan>
<tspan x="10" y="442">|   65351 ms            0 failed        1 passed      |</tspan>
<tspan x="10" y="458">-------------------------------------------------------</tspan>
<tspan x="10" y="474">| test-report - npmTest - browser - / - Mozilla/5.0 (X11; Linux x86_64) AppleWebKit/537.36 (KHTM\</tspan>
<tspan x="10" y="490">L, like Gecko) Chrome/53.0.2785.143 Electron/1.4.16 Safari/537.36 - 2017-05-31T12:18:17.514Z</tspan>
<tspan x="10" y="506">|    3937 ms            0 failed       63 passed      |</tspan>
<tspan x="10" y="522">-------------------------------------------------------</tspan>
<tspan x="10" y="538">| test-report - npmTest - node - linux v6.10.3 - 2017-05-31T12:17:56.259Z</tspan>
<tspan x="10" y="554">|   29179 ms            0 failed       76 passed      |</tspan>
<tspan x="10" y="570">-------------------------------------------------------</tspan>
<tspan x="10" y="586">| test-report - testExampleJs - browser - / - Mozilla/5.0 (X11; Linux x86_64) AppleWebKit/537.36\</tspan>
<tspan x="10" y="602"> (KHTML, like Gecko) Chrome/53.0.2785.143 Electron/1.4.16 Safari/537.36 - 2017-05-31T12:17:31.48\</tspan>
<tspan x="10" y="618">2Z</tspan>
<tspan x="10" y="634">|      34 ms            0 failed        2 passed      |</tspan>
<tspan x="10" y="650">-------------------------------------------------------</tspan>
<tspan x="10" y="666">| test-report - testExampleJs - node - linux v6.10.3 - 2017-05-31T12:17:30.380Z</tspan>
<tspan x="10" y="682">|   10885 ms            0 failed        1 passed      |</tspan>
<tspan x="10" y="698">-------------------------------------------------------</tspan>
<tspan x="10" y="714"></tspan>
<tspan x="10" y="730">created test-report file:///home/travis/build/kaizhu256/node-utility2/tmp/build/test-report.html</tspan>
<tspan x="10" y="746"></tspan>
<tspan x="10" y="762"></tspan>
<tspan x="10" y="778">buildApp - 0 failed tests</tspan>
<tspan x="10" y="794"></tspan>
<tspan x="10" y="810"></tspan>
<tspan x="10" y="826">[MODE_BUILD=buildApp] - 2017-05-31T12:19:37.863Z - EXIT_CODE - 0</tspan>
<tspan x="10" y="842"></tspan>
<tspan x="10" y="858">process exited with code 0</tspan>
<tspan x="10" y="874">EXIT_CODE - 0</tspan>
</text>
</svg>
